<?xml version="1.0" encoding="UTF-8"?>
<svg id="Layer_2" data-name="Layer 2" xmlns="http://www.w3.org/2000/svg" xmlns:xlink="http://www.w3.org/1999/xlink" viewBox="0 0 339.67 244.5">
  <defs>
    <style>
      .cls-1 {
        fill: url(#linear-gradient);
      }
    </style>
    <linearGradient id="linear-gradient" x1="285.68" y1="22.93" x2="225.56" y2="188.13" gradientUnits="userSpaceOnUse">
      <stop offset=".08" stop-color="#8e2b5f"/>
      <stop offset=".19" stop-color="#772851"/>
      <stop offset=".38" stop-color="#52243c"/>
      <stop offset=".57" stop-color="#37212c"/>
      <stop offset=".73" stop-color="#271f23"/>
      <stop offset=".86" stop-color="#221f20"/>
    </linearGradient>
  </defs>
  <g id="Layer_1-2" data-name="Layer 1">
    <g>
      <g>
        <path d="M27.69,188.7c-.94-1.35-2.19-2.35-3.75-2.98-1.57-.63-3.21-.95-4.94-.95-1.03,0-2.02.12-2.98.35-.96.23-1.82.61-2.59,1.12-.77.51-1.39,1.18-1.86,2-.47.82-.7,1.79-.7,2.91,0,1.68.58,2.97,1.75,3.86,1.17.89,2.62,1.66,4.35,2.31,1.73.65,3.62,1.29,5.68,1.89,2.06.61,3.95,1.45,5.68,2.52,1.73,1.08,3.18,2.5,4.35,4.28,1.17,1.78,1.75,4.14,1.75,7.08,0,2.66-.49,4.99-1.47,6.98-.98,1.99-2.3,3.63-3.96,4.94-1.66,1.31-3.59,2.29-5.78,2.94-2.2.65-4.51.98-6.94.98-3.08,0-6.05-.51-8.9-1.54-2.85-1.03-5.3-2.76-7.36-5.19l6.66-6.45c1.07,1.64,2.49,2.91,4.24,3.82s3.61,1.37,5.57,1.37c1.03,0,2.06-.14,3.08-.42,1.03-.28,1.96-.7,2.8-1.26.84-.56,1.52-1.27,2.03-2.14.51-.86.77-1.86.77-2.98,0-1.82-.58-3.22-1.75-4.21-1.17-.98-2.62-1.81-4.35-2.49-1.73-.68-3.62-1.32-5.68-1.93-2.06-.61-3.95-1.44-5.68-2.49-1.73-1.05-3.18-2.45-4.35-4.21-1.17-1.75-1.75-4.1-1.75-7.05,0-2.57.53-4.79,1.58-6.66,1.05-1.87,2.43-3.42,4.14-4.66,1.71-1.24,3.66-2.16,5.85-2.77,2.2-.61,4.44-.91,6.73-.91,2.62,0,5.15.4,7.61,1.19,2.45.8,4.66,2.1,6.62,3.93l-6.45,6.8Z"/>
        <path d="M70.73,227.68h-7.99v-5.4h-.14c-.79,1.68-2.01,3.14-3.65,4.38-1.64,1.24-3.86,1.86-6.66,1.86-2.24,0-4.15-.36-5.71-1.09-1.57-.72-2.84-1.71-3.82-2.94-.98-1.24-1.68-2.65-2.1-4.24-.42-1.59-.63-3.25-.63-4.98v-21.24h8.41v17.03c0,.94.05,1.97.14,3.12.09,1.15.34,2.22.74,3.22.4,1.01,1,1.85,1.82,2.52.82.68,1.97,1.02,3.47,1.02,1.4,0,2.58-.23,3.54-.7.96-.47,1.75-1.1,2.38-1.89.63-.79,1.09-1.71,1.37-2.73.28-1.03.42-2.1.42-3.22v-18.37h8.41v33.65Z"/>
        <path d="M78.86,194.03h8.41v5.33h.14c.93-1.96,2.27-3.48,4-4.56,1.73-1.07,3.72-1.61,5.96-1.61.51,0,1.02.05,1.51.14.49.09.99.21,1.51.35v8.13c-.7-.19-1.39-.34-2.07-.46-.68-.12-1.34-.18-2-.18-1.96,0-3.54.36-4.73,1.09-1.19.73-2.1,1.55-2.73,2.49-.63.94-1.05,1.87-1.26,2.8-.21.94-.32,1.64-.32,2.1v18.02h-8.41v-33.65Z"/>
        <path d="M101.78,210.85c0-2.66.48-5.08,1.44-7.26.96-2.17,2.25-4.03,3.89-5.57,1.64-1.54,3.58-2.73,5.82-3.58s4.63-1.26,7.15-1.26,4.91.42,7.15,1.26,4.18,2.03,5.82,3.58c1.64,1.54,2.93,3.4,3.89,5.57.96,2.17,1.44,4.59,1.44,7.26s-.48,5.08-1.44,7.26c-.96,2.17-2.26,4.03-3.89,5.57-1.64,1.54-3.58,2.73-5.82,3.57-2.24.84-4.63,1.26-7.15,1.26s-4.91-.42-7.15-1.26c-2.24-.84-4.18-2.03-5.82-3.57-1.64-1.54-2.93-3.4-3.89-5.57-.96-2.17-1.44-4.59-1.44-7.26ZM110.2,210.85c0,1.31.22,2.57.67,3.79.44,1.22,1.1,2.29,1.96,3.22.86.94,1.9,1.68,3.12,2.24,1.21.56,2.59.84,4.14.84s2.92-.28,4.14-.84c1.21-.56,2.25-1.31,3.12-2.24.86-.93,1.52-2.01,1.96-3.22.44-1.21.67-2.48.67-3.79s-.22-2.57-.67-3.79c-.44-1.21-1.1-2.29-1.96-3.22-.87-.93-1.9-1.68-3.12-2.24-1.22-.56-2.59-.84-4.14-.84s-2.92.28-4.14.84c-1.22.56-2.26,1.31-3.12,2.24-.87.94-1.52,2.01-1.96,3.22-.44,1.22-.67,2.48-.67,3.79Z"/>
        <path d="M178.75,194.03v30.63c0,3.04-.38,5.78-1.12,8.24-.75,2.45-1.9,4.53-3.47,6.24-1.57,1.71-3.54,3.02-5.92,3.96-2.38.93-5.21,1.4-8.48,1.4s-6.1-.4-8.9-1.19c-2.8-.8-5.4-2.24-7.78-4.35l5.05-6.87c1.68,1.54,3.43,2.73,5.26,3.58s3.93,1.26,6.31,1.26c2.01,0,3.7-.28,5.08-.84,1.38-.56,2.48-1.33,3.29-2.31.82-.98,1.4-2.16,1.75-3.54.35-1.38.53-2.91.53-4.59v-2.45h-.14c-1.22,1.64-2.83,2.86-4.84,3.68-2.01.82-4.07,1.23-6.17,1.23-2.52,0-4.81-.46-6.87-1.37-2.06-.91-3.82-2.14-5.29-3.68-1.47-1.54-2.61-3.36-3.4-5.47-.79-2.1-1.19-4.35-1.19-6.73s.37-4.79,1.12-6.94c.75-2.15,1.85-4.02,3.29-5.61,1.45-1.59,3.19-2.84,5.22-3.75,2.03-.91,4.36-1.37,6.98-1.37,2.38,0,4.6.47,6.66,1.4,2.06.94,3.69,2.43,4.91,4.49h.14v-5.05h7.99ZM160.81,200.76c-1.5,0-2.85.25-4.07.74-1.22.49-2.26,1.17-3.12,2.03-.87.87-1.54,1.92-2.03,3.15-.49,1.24-.74,2.61-.74,4.1,0,1.36.25,2.62.74,3.79.49,1.17,1.18,2.2,2.07,3.08.89.89,1.94,1.59,3.15,2.1,1.21.51,2.52.77,3.93.77,1.54,0,2.93-.26,4.17-.77,1.24-.51,2.29-1.2,3.15-2.07s1.53-1.9,2-3.12c.47-1.21.7-2.52.7-3.93,0-2.94-.89-5.33-2.66-7.15-1.78-1.82-4.21-2.73-7.29-2.73Z"/>
        <path d="M207.91,223.05h-.21c-1.22,1.92-2.76,3.31-4.63,4.17-1.87.86-3.93,1.3-6.17,1.3-1.54,0-3.05-.21-4.52-.63-1.47-.42-2.78-1.05-3.93-1.89-1.15-.84-2.07-1.89-2.77-3.15-.7-1.26-1.05-2.73-1.05-4.42,0-1.82.33-3.38.98-4.66.65-1.28,1.53-2.36,2.63-3.22,1.1-.86,2.37-1.55,3.82-2.07,1.45-.51,2.96-.9,4.52-1.16,1.57-.26,3.14-.42,4.73-.49,1.59-.07,3.08-.1,4.49-.1h2.1v-.91c0-2.1-.73-3.68-2.17-4.73-1.45-1.05-3.29-1.58-5.54-1.58-1.78,0-3.44.32-4.98.95-1.54.63-2.87,1.48-4,2.56l-4.42-4.42c1.87-1.92,4.05-3.29,6.55-4.14,2.5-.84,5.08-1.26,7.75-1.26,2.38,0,4.39.27,6.03.81,1.64.54,2.99,1.23,4.07,2.07,1.07.84,1.9,1.81,2.49,2.91.58,1.1,1,2.21,1.26,3.33.26,1.12.41,2.21.46,3.26.05,1.05.07,1.97.07,2.77v19.35h-7.57v-4.63ZM207.42,212.61h-1.75c-1.17,0-2.48.05-3.93.14-1.45.09-2.82.32-4.1.67-1.29.35-2.37.87-3.26,1.54-.89.68-1.33,1.62-1.33,2.84,0,.8.18,1.46.53,2,.35.54.81.99,1.37,1.37.56.37,1.19.64,1.89.81.7.16,1.4.25,2.1.25,2.9,0,5.04-.69,6.41-2.07,1.38-1.38,2.07-3.26,2.07-5.64v-1.89Z"/>
        <path d="M219.9,201.18v-7.15h6.94v-9.74h8.41v9.74h9.25v7.15h-9.25v14.72c0,1.68.32,3.01.95,4s1.88,1.47,3.75,1.47c.75,0,1.57-.08,2.45-.25.89-.16,1.59-.43,2.1-.81v7.08c-.89.42-1.97.71-3.26.88-1.29.16-2.42.25-3.4.25-2.24,0-4.08-.25-5.5-.74-1.43-.49-2.55-1.24-3.37-2.24-.82-1-1.38-2.25-1.68-3.75-.3-1.5-.46-3.22-.46-5.19v-15.42h-6.94Z"/>
        <path d="M256.42,213.8c.28,2.52,1.26,4.49,2.94,5.89,1.68,1.4,3.72,2.1,6.1,2.1,2.1,0,3.87-.43,5.29-1.3,1.42-.86,2.67-1.95,3.75-3.26l6.03,4.56c-1.96,2.43-4.16,4.16-6.59,5.19-2.43,1.03-4.98,1.54-7.64,1.54-2.52,0-4.91-.42-7.15-1.26-2.24-.84-4.18-2.03-5.82-3.57-1.64-1.54-2.93-3.4-3.89-5.57-.96-2.17-1.44-4.59-1.44-7.26s.48-5.08,1.44-7.26c.96-2.17,2.25-4.03,3.89-5.57,1.64-1.54,3.58-2.73,5.82-3.58s4.63-1.26,7.15-1.26c2.34,0,4.47.41,6.41,1.23,1.94.82,3.6,2,4.98,3.54,1.38,1.54,2.45,3.45,3.22,5.71.77,2.27,1.16,4.87,1.16,7.82v2.31h-25.66ZM273.67,207.49c-.05-2.48-.82-4.43-2.31-5.85-1.5-1.42-3.58-2.14-6.24-2.14-2.52,0-4.52.73-5.99,2.17-1.47,1.45-2.37,3.39-2.7,5.82h17.24Z"/>
      </g>
      <g>
        <path d="M339.53,130.54c.49,3.24-.3,6.13-2.35,8.67-.38.47-.81.9-1.28,1.28-2.53,2.03-5.41,2.8-8.63,2.33-.61-.09-1.21-.25-1.78-.47-3.05-1.18-5.17-3.28-6.37-6.31-.22-.57-.39-1.16-.48-1.77-.52-3.25.26-6.16,2.32-8.74.39-.48.83-.93,1.31-1.31,2.56-2.04,5.45-2.81,8.68-2.31.6.09,1.19.25,1.75.47,3.04,1.18,5.16,3.31,6.36,6.37.22.58.39,1.18.48,1.79M336.45,133.8c.48-3.2-.58-5.75-3.18-7.68-.81-.6-1.77-1-2.77-1.15-3.19-.48-5.75.58-7.68,3.18-.6.81-1,1.77-1.15,2.77-.48,3.2.58,5.76,3.18,7.68.81.6,1.77,1,2.76,1.15,3.19.48,5.75-.58,7.68-3.18.6-.81,1-1.77,1.15-2.77M324.84,127.01h4.79c1.35,0,2.34.27,2.94.82.61.55.91,1.28.91,2.2,0,.72-.23,1.34-.69,1.86-.46.52-1.19.9-2.19,1.14.41.16.71.32.9.5.27.24.56.61.85,1.09.02.04.59,1.07,1.73,3.09h-3.15c-1.02-2.04-1.71-3.25-2.06-3.65-.35-.4-.7-.6-1.05-.6-.08,0-.19.01-.33.04v4.21h-2.66v-10.7ZM327.39,131.5h1.22c.81,0,1.39-.13,1.72-.4.33-.26.5-.6.5-1.02s-.16-.76-.48-1.02c-.32-.26-.86-.4-1.63-.4h-1.33v2.83Z"/>
        <path class="cls-1" d="M214.64,72.84c0,.48.05.95.14,1.4,4.38,1.03,8.69,2.24,12.91,3.64,1.21-1.33,1.96-3.1,1.96-5.04,0-4.14-3.36-7.5-7.5-7.5s-7.5,3.36-7.5,7.5M181.74,138.55c6.47-10.66,14.03-18.55,24.3-25.5,1.28-.87,2.59-1.67,3.93-2.44.92-.52,1.28-1.37,1.22-2.2,0-1.11-1.03-1.91-1.94-2.33-2.8-1.29-5.67-3.12-8.47-5.3-3.28-2.54-6.29-5.42-9.1-8.47-1.99-2.16-4.22-4.97-6.26-7.95-1.68-2.46-1.31-5.78.9-7.78,2.3-2.08,4.71-4,7.27-5.77.75-.52,1.51-1.03,2.29-1.53,5.07-3.23,10.54-5.83,16.26-7.72,6.75-2.23,13.82-3.46,20.93-3.63,1.23-.74,2.48-1.45,3.75-2.11,3.46-1.84,7.07-3.39,10.8-4.62,3.29-1.12,6.68-1.98,10.14-2.6,6.85-1.23,13.87-1.46,20.78-.67,2.56.29,5.12.71,7.69,1.29,6,1.34,11.66,3.38,16.9,6.05,1.12.57,1.47,1.99.74,3.02-3.3,4.65-7.23,8.88-11.49,12.63-6.28,5.53-13.6,9.91-21.42,12.87-4.85,1.84-9.92,3.19-15.08,3.98-1.29.2-1.62,1.89-.49,2.54.01,0,.02.01.04.02,14.55,8.45,27.35,19.25,38.34,32,1.5,1.73,2.96,3.5,4.39,5.29,7.01,8.82,13.01,18.42,17.88,28.57,3.75,7.8,6.83,15.93,9.18,24.26,1.53,5.43,2.8,10.94,3.67,16.52.24,1.59-1.82,2.43-2.72,1.1-2.39-3.54-4.82-7-7.54-10.3-2.5-3.04-5.14-5.98-7.84-8.85-11.37-12.12-24.72-22.34-39.34-30.23-15.28-8.24-31.51-13.33-48.96-13.64-4.66-.09-9.31.17-13.95.63-8.45.89-16.75,2.67-24.9,5.02-.06.01-.11.03-.17.05-.02,0-.03,0-.04,0-.15.04-.29.06-.43.06-1.11,0-1.89-1.25-1.27-2.28M217.24,2.13c-2.74,2.41-4.6,5.65-6.06,8.96-3.47,7.81-5.94,16.15-7.34,24.58-.66,4-1.18,8.08-2.67,11.88-.36.92-.78,1.81-1.26,2.68-2.46,4.39-7.03,6.67-11.7,8.06-10.37,3.08-21.16,4.12-31.84,5.53-4.95.65-16.77,2.35-15.33,9.79.96,4.93,4.72,8.69,8.51,11.69,5.56,4.4,11.35,8.54,17.39,12.27,3.9,2.41,8.04,4.41,11.69,7.19,3.64,2.78,6.58,6.37,7.47,10.96.47,2.42-.37,4.91-2.08,6.68-3.28,3.41-6.26,7.11-8.88,11.05-2.75,4.39-4.97,9.08-6.78,13.89-1.24,3.01,2.02,6.23,5.03,4.95,1.12-.44,2.24-.87,3.37-1.27,4.73-1.7,9.77,1.52,10.3,6.52.36,3.36.8,6.61,1.32,9.54.97,5.36,6.55,7.58,11.12,2.95,5.94-6.02,9.74-13.18,16.37-18.5,5.29-4.25,13.08-8.71,20.27-7.49,6.63,1.18,13.1,3.17,19.26,5.95,11.12,4.84,21.64,11.06,31.21,18.5,19.14,14.83,34.57,34.47,44.42,56.59,1.94,4.32,8.42,3,8.56-1.74,1.15-36.98-11.94-74.04-35.72-102.34-5.99-7.15-12.67-13.88-20.02-19.7-1.83-1.67-3.21-3.55-2.89-6.11.78-6.19,4.18-9.02,8.43-12.22,5.24-3.94,10.48-8.03,14.95-12.96.06-.07.13-.13.19-.2,2.59-2.87,4.98-5.92,7.1-9.13,2.52-3.78,1.26-8.9-2.72-11.08,0,0-2.01-1.08-3.04-1.58-5.68-2.8-11.71-4.93-17.97-6.32-5.76-1.29-11.65-1.94-17.5-1.94-4.98,0-9.93.47-14.8,1.39-4.09.78-8.3-.65-10.97-3.85-.59-.7-1.13-1.43-1.64-2.17-1.21-1.75-2.28-3.58-3.41-5.38-2.7-4.31-3.9-7.58-6.04-12.19-2.22-4.79-3.87-9.87-6.81-14.32-1.53-2.31-3.19-3.22-4.85-3.22s-3.21.86-4.67,2.13"/>
      </g>
    </g>
  </g>
</svg>